[Header]
FileType HTR
DataType HTRS
FileVersion 1
NumSegments 64
NumFrames 4
DataFrameRate 24
EulerRotationOrder ZYX
CalibrationUnits mm
RotationUnits Degrees
GlobalAxisofGravity Y
BoneLengthAxis Y
ScaleFactor 1.0
[SegmentNames&Hierarchy]
Hips	GLOBAL
Spine	Hips
Spine1	Spine
Spine2	Spine1
Neck	Spine2
Head	Neck
LeftEye	Head
RightEye	Head
LeftShoulder	Spine2
LeftArm	LeftShoulder
LeftForeArm	LeftArm
LeftHand	LeftForeArm
LeftHandThumb1	LeftHand
LeftHandThumb2	LeftHandThumb1
LeftHandThumb3	LeftHandThumb2
LeftHandThumb4	LeftHandThumb3
LeftHandIndex1	LeftHand
LeftHandIndex2	LeftHandIndex1
LeftHandIndex3	LeftHandIndex2
LeftHandIndex4	LeftHandIndex3
LeftHandMiddle1	LeftHand
LeftHandMiddle2	LeftHandMiddle1
LeftHandMiddle3	LeftHandMiddle2
LeftHandMiddle4	LeftHandMiddle3
LeftHandRing1	LeftHand
LeftHandRing2	LeftHandRing1
LeftHandRing3	LeftHandRing2
LeftHandRing4	LeftHandRing3
LeftHandPinky1	LeftHand
LeftHandPinky2	LeftHandPinky1
LeftHandPinky3	LeftHandPinky2
LeftHandPinky4	LeftHandPinky3
RightShoulder	Spine2
RightArm	RightShoulder
RightForeArm	RightArm
RightHand	RightForeArm
RightHandPinky1	RightHand
RightHandPinky2	RightHandPinky1
RightHandPinky3	RightHandPinky2
RightHandPinky4	RightHandPinky3
RightHandRing1	RightHand
RightHandRing2	RightHandRing1
RightHandRing3	RightHandRing2
RightHandRing4	RightHandRing3
RightHandMiddle1	RightHand
RightHandMiddle2	RightHandMiddle1
RightHandMiddle3	RightHandMiddle2
RightHandMiddle4	RightHandMiddle3
RightHandIndex1	RightHand
RightHandIndex2	RightHandIndex1
RightHandIndex3	RightHandIndex2
RightHandIndex4	RightHandIndex3
RightHandThumb1	RightHand
RightHandThumb2	RightHandThumb1
RightHandThumb3	RightHandThumb2
RightHandThumb4	RightHandThumb3
LeftUpLeg	Hips
LeftLeg	LeftUpLeg
LeftFoot	LeftLeg
LeftToeBase	LeftFoot
RightUpLeg	Hips
RightLeg	RightUpLeg
RightFoot	RightLeg
RightToeBase	RightFoot
[BasePosition]
Hips	0	0	0	0	0	0	1
Spine	0	0	0	0	0	0	1
Spine1	0	0	0	0	0	0	1
Spine2	0	0	0	0	0	0	1
Neck	0	0	0	0	0	0	1
Head	0	0	0	0	0	0	1
LeftEye	0	0	0	0	0	0	1
RightEye	0	0	0	0	0	0	1
LeftShoulder	0	0	0	0	0	0	1
LeftArm	0	0	0	0	0	0	1
LeftForeArm	0	0	0	0	0	0	1
LeftHand	0	0	0	0	0	0	1
LeftHandThumb1	0	0	0	0	0	0	1
LeftHandThumb2	0	0	0	0	0	0	1
LeftHandThumb3	0	0	0	0	0	0	1
LeftHandThumb4	0	0	0	0	0	0	1
LeftHandIndex1	0	0	0	0	0	0	1
LeftHandIndex2	0	0	0	0	0	0	1
LeftHandIndex3	0	0	0	0	0	0	1
LeftHandIndex4	0	0	0	0	0	0	1
LeftHandMiddle1	0	0	0	0	0	0	1
LeftHandMiddle2	0	0	0	0	0	0	1
LeftHandMiddle3	0	0	0	0	0	0	1
LeftHandMiddle4	0	0	0	0	0	0	1
LeftHandRing1	0	0	0	0	0	0	1
LeftHandRing2	0	0	0	0	0	0	1
LeftHandRing3	0	0	0	0	0	0	1
LeftHandRing4	0	0	0	0	0	0	1
LeftHandPinky1	0	0	0	0	0	0	1
LeftHandPinky2	0	0	0	0	0	0	1
LeftHandPinky3	0	0	0	0	0	0	1
LeftHandPinky4	0	0	0	0	0	0	1
RightShoulder	0	0	0	0	0	0	1
RightArm	0	0	0	0	0	0	1
RightForeArm	0	0	0	0	0	0	1
RightHand	0	0	0	0	0	0	1
RightHandPinky1	0	0	0	0	0	0	1
RightHandPinky2	0	0	0	0	0	0	1
RightHandPinky3	0	0	0	0	0	0	1
RightHandPinky4	0	0	0	0	0	0	1
RightHandRing1	0	0	0	0	0	0	1
RightHandRing2	0	0	0	0	0	0	1
RightHandRing3	0	0	0	0	0	0	1
RightHandRing4	0	0	0	0	0	0	1
RightHandMiddle1	0	0	0	0	0	0	1
RightHandMiddle2	0	0	0	0	0	0	1
RightHandMiddle3	0	0	0	0	0	0	1
RightHandMiddle4	0	0	0	0	0	0	1
RightHandIndex1	0	0	0	0	0	0	1
RightHandIndex2	0	0	0	0	0	0	1
RightHandIndex3	0	0	0	0	0	0	1
RightHandIndex4	0	0	0	0	0	0	1
RightHandThumb1	0	0	0	0	0	0	1
RightHandThumb2	0	0	0	0	0	0	1
RightHandThumb3	0	0	0	0	0	0	1
RightHandThumb4	0	0	0	0	0	0	1
LeftUpLeg	0	0	0	0	0	0	1
LeftLeg	0	0	0	0	0	0	1
LeftFoot	0	0	0	0	0	0	1
LeftToeBase	0	0	0	0	0	0	1
RightUpLeg	0	0	0	0	0	0	1
RightLeg	0	0	0	0	0	0	1
RightFoot	0	0	0	0	0	0	1
RightToeBase	0	0	0	0	0	0	1
[Hips]
30	77.91279602	1180.682129	-7.861492634	9.71833992	-1.155502319	-6.005279541	1.0
31	83.98303223	1114.690796	28.93483353	6.084970951	-0.04426152259	-6.449932098	1.0
32	75.16056824	1033.204834	53.82177353	3.121555328	4.596063137	-7.403598309	1.0
33	52.76390076	952.9783936	55.84028625	2.529631376	11.8049078	-9.427516937	1.0
[Spine]
30	0	101.8159943	1.315000057	9.540034294	4.680125713	4.383759975	1.0
31	0	101.8159943	1.315000057	8.015158653	5.30796051	4.609538555	1.0
32	0	101.8159943	1.315000057	7.055878162	5.178752899	3.679934263	1.0
33	0	101.8159943	1.315000057	6.842072487	4.334776878	2.982631922	1.0
[Spine1]
30	0	100.8349991	-10.00800037	3.30603838	2.50004673	2.049262762	1.0
31	0	100.8349991	-10.00800037	2.668122053	2.786576509	1.944270492	1.0
32	0	100.8349991	-10.00800037	2.530533075	2.844590902	1.616488099	1.0
33	0	100.8349991	-10.00800037	2.71029377	2.59257865	1.32882762	1.0
[Spine2]
30	0	91	-13.73399925	3.291727304	2.557173252	1.925030231	1.0
31	0	91	-13.73399925	2.654201984	2.833213329	1.833941221	1.0
32	0	91	-13.73399925	2.528098822	2.857051611	1.530860186	1.0
33	0	91	-13.73399925	2.711033583	2.58580637	1.268036962	1.0
[Neck]
30	0	166.7169952	-25.16200066	20.36495209	-1.833733678	-3.699811459	1.0
31	0	166.7169952	-25.16200066	20.07508659	-2.434105158	-2.173482418	1.0
32	0	166.7169952	-25.16200066	17.21236038	-3.158301115	-0.3330233395	1.0
33	0	166.7169952	-25.16200066	12.70234299	-3.709523201	0.5405281782	1.0
[Head]
30	0	96.17900085	16.84999847	-22.37257195	-9.106971741	5.63451767	1.0
31	0	96.17900085	16.84999847	-16.97245216	-10.25424194	6.900125504	1.0
32	0	96.17900085	16.84999847	-14.87954235	-12.62449074	11.83879852	1.0
33	0	96.17900085	16.84999847	-17.56668282	-15.60224152	18.14359474	1.0
[LeftEye]
30	30.6760006	64.09500122	92.83599854	0	0	0	1.0
31	30.6760006	64.09500122	92.83599854	0	0	0	1.0
32	30.6760006	64.09500122	92.83599854	0	0	0	1.0
33	30.6760006	64.09500122	92.83599854	0	0	0	1.0
[RightEye]
30	-30.6760006	64.09500122	92.83499908	0	0	0	1.0
31	-30.6760006	64.09500122	92.83499908	0	0	0	1.0
32	-30.6760006	64.09500122	92.83499908	0	0	0	1.0
33	-30.6760006	64.09500122	92.83499908	0	0	0	1.0
[LeftShoulder]
30	45.70400238	109.4599991	-26.28000069	3.999020815	4.731618881	28.41654968	1.0
31	45.70400238	109.4599991	-26.28000069	4.243461132	7.055284023	25.16300964	1.0
32	45.70400238	109.4599991	-26.28000069	3.880596638	7.030974388	19.23743057	1.0
33	45.70400238	109.4599991	-26.28000069	3.28301692	4.010952473	10.6928587	1.0
[LeftArm]
30	105.923996	-5.24600029	-22.32099915	9.574331284	-18.40409088	-3.889176846	1.0
31	105.923996	-5.24600029	-22.32099915	12.89733982	-8.991147995	-12.23542595	1.0
32	105.923996	-5.24600029	-22.32099915	9.457252502	3.434740305	-19.37689209	1.0
33	105.923996	-5.24600029	-22.32099915	-0.5576783419	11.69745064	-29.72047424	1.0
[LeftForeArm]
30	278.414978	-0.0009999999311	0	1.019279716e-05	-74.52972412	-0.000199582224	1.0
31	278.414978	-0.0009999999311	0	4.545451884e-05	-88.10320282	-0.0004025546368	1.0
32	278.414978	-0.0009999999311	0	2.351969487e-11	-97.44866943	-0.0001831053814	1.0
33	278.414978	-0.0009999999311	0	9.155271255e-05	-97.44805145	-0.000259399385	1.0
[LeftHand]
30	283.2879944	0	0	-31.11672783	-7.328823566	47.96693802	1.0
31	283.2879944	0	0	-30.14068985	-9.887944221	48.52314758	1.0
32	283.2879944	0	0	-31.65230942	-11.40502167	42.4858551	1.0
33	283.2879944	0	0	-32.74412537	-11.66270828	36.17627716	1.0
[LeftHandThumb1]
30	24.6609993	-15.75	26.8239994	-2.750683546	-3.853966951	2.949685812	1.0
31	24.6609993	-15.75	26.8239994	-2.474665403	-3.08868432	3.168091297	1.0
32	24.6609993	-15.75	26.8239994	-1.607629299	-0.7342942357	3.869957209	1.0
33	24.6609993	-15.75	26.8239994	-0.7203631401	1.606872439	4.620889664	1.0
[LeftHandThumb2]
30	32.29800034	-18.64699936	18.64699936	3.131946564	-1.847084641	13.26897717	1.0
31	32.29800034	-18.64699936	18.64699936	2.86809206	1.057950377	14.07200909	1.0
32	32.29800034	-18.64699936	18.64699936	7.023600101	11.24815845	15.48623562	1.0
33	32.29800034	-18.64699936	18.64699936	9.132834435	20.57563591	16.70535278	1.0
[LeftHandThumb3]
30	26.52600098	-15.31499958	15.31499958	-22.88121033	-16.11359406	9.232548714	1.0
31	26.52600098	-15.31499958	15.31499958	-21.22763443	-12.52712059	8.80653286	1.0
32	26.52600098	-15.31499958	15.31499958	-17.16410637	-3.402217865	8.031048775	1.0
33	26.52600098	-15.31499958	15.31499958	-13.15220737	7.694935322	8.19699192	1.0
[LeftHandThumb4]
30	19.54599953	-11.28499985	11.28499985	0	0	0	1.0
31	19.54599953	-11.28499985	11.28499985	0	0	0	1.0
32	19.54599953	-11.28499985	11.28499985	0	0	0	1.0
33	19.54599953	-11.28499985	11.28499985	0	0	0	1.0
[LeftHandIndex1]
30	91.09299469	-5.170999527	22.60099792	0.9484972358	-14.52901363	-5.29933548	1.0
31	91.09299469	-5.170999527	22.60099792	0.6126821041	-13.4381094	-5.27807045	1.0
32	91.09299469	-5.170999527	22.60099792	0.4718532264	-7.605190277	-6.50917244	1.0
33	91.09299469	-5.170999527	22.60099792	0.5804701447	-1.354906678	-7.292720318	1.0
[LeftHandIndex2]
30	36.76399994	0	0	-0.2899154425	1.817649484	-18.12309837	1.0
31	36.76399994	0	0	-0.2913696468	1.822088599	-18.16897774	1.0
32	36.76399994	0	0	-0.2926401496	1.825956702	-18.20885849	1.0
33	36.76399994	0	0	-0.2938833833	1.829709411	-18.24772644	1.0
[LeftHandIndex3]
30	28.83100128	0	0	-0.06855800003	0.8925674558	-8.784023285	1.0
31	28.83100128	0	0	-0.06928617507	0.8972681761	-8.830517769	1.0
32	28.83100128	0	0	-0.06990725547	0.9012722373	-8.870222092	1.0
33	28.83100128	0	0	-0.07051423192	0.905156076	-8.908905029	1.0
[LeftHandIndex4]
30	23.92700005	0	0	0	0	0	1.0
31	23.92700005	0	0	0	0	0	1.0
32	23.92700005	0	0	0	0	0	1.0
33	23.92700005	0	0	0	0	0	1.0
[LeftHandMiddle1]
30	95.33399963	0	0	-0.2161272317	0.5156959295	-6.121134758	1.0
31	95.33399963	0	0	-0.2034769654	0.1571884304	-5.905564785	1.0
32	95.33399963	0	0	-0.2254594266	-0.1231727898	-6.357822418	1.0
33	95.33399963	0	0	-0.2691295147	-0.03667494655	-7.181497097	1.0
[LeftHandMiddle2]
30	36.98199844	0	0	-0.2850106657	1.80260396	-17.96785927	1.0
31	36.98199844	0	0	-0.2883396149	1.812832117	-18.0735302	1.0
32	36.98199844	0	0	-0.2893555462	1.815942764	-18.10556412	1.0
33	36.98199844	0	0	-0.2893496752	1.815932512	-18.10562897	1.0
[LeftHandMiddle3]
30	29.50900078	0	0	-0.31788221	1.900947213	-18.98508072	1.0
31	29.50900078	0	0	-0.3215263486	1.911494851	-19.09458733	1.0
32	29.50900078	0	0	-0.3227612376	1.915041566	-19.13151169	1.0
33	29.50900078	0	0	-0.3227511346	1.915016651	-19.13139915	1.0
[LeftHandMiddle4]
30	28.3390007	0	0	0	0	0	1.0
31	28.3390007	0	0	0	0	0	1.0
32	28.3390007	0	0	0	0	0	1.0
33	28.3390007	0	0	0	0	0	1.0
[LeftHandRing1]
30	91.04499817	-0.4390000105	-18.65100098	-0.585098207	12.06591511	-13.36360836	1.0
31	91.04499817	-0.4390000105	-18.65100098	-0.6187937856	11.06038094	-13.68396378	1.0
32	91.04499817	-0.4390000105	-18.65100098	-0.6641740203	7.643912792	-13.89984608	1.0
33	91.04499817	-0.4390000105	-18.65100098	-0.7458121181	4.099155426	-14.97381401	1.0
[LeftHandRing2]
30	31.54000092	0	0	-0.3982004523	2.119927406	-21.27434158	1.0
31	31.54000092	0	0	-0.4181989729	2.170564651	-21.80858803	1.0
32	31.54000092	0	0	-0.420653522	2.176664114	-21.87328339	1.0
33	31.54000092	0	0	-0.4118582308	2.154644966	-21.64060593	1.0
[LeftHandRing3]
30	29.37700081	0	0	-0.2935957313	1.828872681	-18.23910332	1.0
31	29.37700081	0	0	-0.310867548	1.880448103	-18.77265358	1.0
32	29.37700081	0	0	-0.3128308058	1.88623035	-18.83248329	1.0
33	29.37700081	0	0	-0.3050381541	1.863189578	-18.59396362	1.0
[LeftHandRing4]
30	26.47500038	0	0	0	0	0	1.0
31	26.47500038	0	0	0	0	0	1.0
32	26.47500038	0	0	0	0	0	1.0
33	26.47500038	0	0	0	0	0	1.0
[LeftHandPinky1]
30	80.77799988	-4.887000084	-38.06099701	-0.9435015917	24.58103943	-18.86860275	1.0
31	80.77799988	-4.887000084	-38.06099701	-1.022206664	22.60804749	-20.11062813	1.0
32	80.77799988	-4.887000084	-38.06099701	-1.309875369	14.63058662	-22.59922791	1.0
33	80.77799988	-4.887000084	-38.06099701	-1.62990737	5.323754311	-25.46717453	1.0
[LeftHandPinky2]
30	36	0	0	-0.3180496395	1.901413679	-18.99007225	1.0
31	36	0	0	-0.334949255	1.949807167	-19.49314308	1.0
32	36	0	0	-0.3303979337	1.936922789	-19.35896301	1.0
33	36	0	0	-0.3101335466	1.878292561	-18.75031471	1.0
[LeftHandPinky3]
30	21.14200211	0	0	-0.2887266576	1.814045787	-18.08576775	1.0
31	21.14200211	0	0	-0.3049285412	1.86286962	-18.59061241	1.0
32	21.14200211	0	0	-0.3006350696	1.850080609	-18.45838356	1.0
33	21.14200211	0	0	-0.2812788486	1.791053772	-17.84882927	1.0
[LeftHandPinky4]
30	19.75699997	0	0	0	0	0	1.0
31	19.75699997	0	0	0	0	0	1.0
32	19.75699997	0	0	0	0	0	1.0
33	19.75699997	0	0	0	0	0	1.0
[RightShoulder]
30	-45.70000076	109.4620056	-26.28000069	-3.082656622	17.48731041	-28.82703209	1.0
31	-45.70000076	109.4620056	-26.28000069	-2.531666994	16.99784088	-26.48143005	1.0
32	-45.70000076	109.4620056	-26.28000069	-0.8887072206	14.10116959	-20.29845619	1.0
33	-45.70000076	109.4620056	-26.28000069	1.159667253	9.664891243	-10.58781052	1.0
[RightArm]
30	-105.9280014	-5.248000145	-22.32099915	-6.58979845	-20.60987473	16.06535149	1.0
31	-105.9280014	-5.248000145	-22.32099915	-0.09046220034	-28.52542305	19.5208416	1.0
32	-105.9280014	-5.248000145	-22.32099915	-3.002768517	-32.22354126	27.32636833	1.0
33	-105.9280014	-5.248000145	-22.32099915	-12.79414654	-25.99225807	36.08824539	1.0
[RightForeArm]
30	-278.414978	0	0	-5.042230896e-06	47.33622742	-2.866753675e-06	1.0
31	-278.414978	0	0	-4.702985279e-06	53.852005	3.524459544e-06	1.0
32	-278.414978	0	0	-1.965348474e-06	55.24676514	4.638116934e-06	1.0
33	-278.414978	0	0	6.74291914e-06	50.12668228	1.25712595e-05	1.0
[RightHand]
30	-283.2879944	0	0.0009999999311	-7.808973312	-0.7758685946	-32.38011551	1.0
31	-283.2879944	0	0.0009999999311	-6.795137405	-3.996954918	-35.71431732	1.0
32	-283.2879944	0	0.0009999999311	-7.143021107	-12.17239761	-37.0406189	1.0
33	-283.2879944	0	0.0009999999311	-11.20464897	-24.5161972	-35.72519302	1.0
[RightHandPinky1]
30	-80.76699829	-4.885000229	-38.06000137	-0.3413189948	-19.4593811	13.25978661	1.0
31	-80.76699829	-4.885000229	-38.06000137	-0.1436579376	-17.33824921	9.926437378	1.0
32	-80.76699829	-4.885000229	-38.06000137	-1.462631941	-11.10888767	16.18369484	1.0
33	-80.76699829	-4.885000229	-38.06000137	-2.748542547	-5.743383884	21.77893066	1.0
[RightHandPinky2]
30	-36	0	0.0009999999311	-0.04954855889	-0.6763312221	8.400319099	1.0
31	-36	0	0.0009999999311	-0.0367320329	-0.5827285647	7.233635902	1.0
32	-36	0	0.0009999999311	-0.03268795088	-0.5498175025	6.824247837	1.0
33	-36	0	0.0009999999311	-0.02154166251	-0.4465915859	5.542207241	1.0
[RightHandPinky3]
30	-21.14200211	0	0	-0.04452339187	-0.6412799954	7.943288326	1.0
31	-21.14200211	0	0	-0.03264062479	-0.5494289398	6.799813747	1.0
32	-21.14200211	0	0	-0.02617983148	-0.4922180772	6.088754654	1.0
33	-21.14200211	0	0	-0.01484458894	-0.3708997965	4.584251404	1.0
[RightHandPinky4]
30	-19.75699997	0	0	0	0	0	1.0
31	-19.75699997	0	0	0	0	0	1.0
32	-19.75699997	0	0	0	0	0	1.0
33	-19.75699997	0	0	0	0	0	1.0
[RightHandRing1]
30	-91.03599548	-0.4390000105	-18.65100098	-0.4230345786	-6.16756773	10.16169548	1.0
31	-91.03599548	-0.4390000105	-18.65100098	-0.2277539521	-5.789144516	6.365421772	1.0
32	-91.03599548	-0.4390000105	-18.65100098	-0.3370662034	-3.688960075	8.385667801	1.0
33	-91.03599548	-0.4390000105	-18.65100098	-0.3866701424	-1.887694955	9.401222229	1.0
[RightHandRing2]
30	-31.54000092	0	0	-0.09989240021	-0.9576129913	11.9099369	1.0
31	-31.54000092	0	0	-0.07745872438	-0.8443140388	10.48351288	1.0
32	-31.54000092	0	0	-0.07206185162	-0.8146058321	10.1105938	1.0
33	-31.54000092	0	0	-0.05401196703	-0.7059459686	8.750461578	1.0
[RightHandRing3]
30	-29.37700081	0	0	-0.05497503281	-0.7121580839	8.827973366	1.0
31	-29.37700081	0	0	-0.03883009031	-0.5990660191	7.417377472	1.0
32	-29.37700081	0	0	-0.03521594033	-0.5706102252	7.063224316	1.0
33	-29.37700081	0	0	-0.0231089592	-0.4625480771	5.720504284	1.0
[RightHandRing4]
30	-26.47500038	0	0	0	0	0	1.0
31	-26.47500038	0	0	0	0	0	1.0
32	-26.47500038	0	0	0	0	0	1.0
33	-26.47500038	0	0	0	0	0	1.0
[RightHandMiddle1]
30	-95.32500458	0	0	-0.338036865	-0.02266063169	8.552219391	1.0
31	-95.32500458	0	0	-0.1804941148	-0.226456508	5.340920448	1.0
32	-95.32500458	0	0	-0.1364376098	-0.2181446999	4.392516613	1.0
33	-95.32500458	0	0	-0.04035031423	-0.1600572467	2.224342823	1.0
[RightHandMiddle2]
30	-36.98199844	0	0	-0.06685307622	-0.7848576307	9.737708092	1.0
31	-36.98199844	0	0	-0.07338378578	-0.8219759464	10.20284462	1.0
32	-36.98199844	0	0	-0.1240178123	-1.06558764	13.27636528	1.0
33	-36.98199844	0	0	-0.1491586864	-1.166990638	14.56672859	1.0
[RightHandMiddle3]
30	-29.50900078	0	0	-0.08205556124	-0.8707842827	10.79073715	1.0
31	-29.50900078	0	0	-0.08912944794	-0.9071415663	11.24838734	1.0
32	-29.50900078	0	0	-0.1443092078	-1.150202513	14.32683182	1.0
33	-29.50900078	0	0	-0.1713756919	-1.251372933	15.62045097	1.0
[RightHandMiddle4]
30	-28.3390007	0	0.0009999999311	0	0	0	1.0
31	-28.3390007	0	0.0009999999311	0	0	0	1.0
32	-28.3390007	0	0.0009999999311	0	0	0	1.0
33	-28.3390007	0	0.0009999999311	0	0	0	1.0
[RightHandIndex1]
30	-91.08300018	-5.167999744	22.60099792	0.1015440673	16.57798958	4.782008171	1.0
31	-91.08300018	-5.167999744	22.60099792	0.06579252332	13.94846535	4.177462101	1.0
32	-91.08300018	-5.167999744	22.60099792	-0.04913410172	12.54210854	5.746662617	1.0
33	-91.08300018	-5.167999744	22.60099792	0.02892377786	11.83746338	3.929421663	1.0
[RightHandIndex2]
30	-36.76399994	0	0	-0.03949595615	-0.6041540504	7.480538368	1.0
31	-36.76399994	0	0	-0.02035609074	-0.4341838956	5.368617535	1.0
32	-36.76399994	0	0	-0.01768980362	-0.4047983885	5.004356861	1.0
33	-36.76399994	0	0	-0.01837714761	-0.4125857055	5.100846767	1.0
[RightHandIndex3]
30	-28.83100128	0	0	-0.0009082772303	0.09200213104	-1.135862947	1.0
31	-28.83100128	0	0	-0.007931624539	0.2712333202	-3.350486279	1.0
32	-28.83100128	0	0	-0.00856614206	0.2818232179	-3.481466293	1.0
33	-28.83100128	0	0	-0.006826628	0.2515930533	-3.107823372	1.0
[RightHandIndex4]
30	-23.92700005	0	0	0	0	0	1.0
31	-23.92700005	0	0	0	0	0	1.0
32	-23.92700005	0	0	0	0	0	1.0
33	-23.92700005	0	0	0	0	0	1.0
[RightHandThumb1]
30	-24.64799881	-15.72700024	26.82600021	-4.244970322	7.119615555	-2.071003675	1.0
31	-24.64799881	-15.72700024	26.82600021	-3.86900425	6.057171822	-2.348927021	1.0
32	-24.64799881	-15.72700024	26.82600021	-3.483694792	4.960403442	-2.646468639	1.0
33	-24.64799881	-15.72700024	26.82600021	-3.1285429	3.945447683	-2.931328297	1.0
[RightHandThumb2]
30	-32.29800034	-18.64699936	18.64699936	15.60743809	-1.533197999	-20.44337463	1.0
31	-32.29800034	-18.64699936	18.64699936	15.88934231	-3.575477839	-20.74329948	1.0
32	-32.29800034	-18.64699936	18.64699936	16.2637043	-4.400390148	-23.68334198	1.0
33	-32.29800034	-18.64699936	18.64699936	16.54220772	-4.098977089	-28.28512764	1.0
[RightHandThumb3]
30	-26.52600098	-15.31399918	15.31399918	-15.51633072	-7.550123215	-26.00815964	1.0
31	-26.52600098	-15.31399918	15.31399918	-15.27970314	-8.016803741	-25.55754089	1.0
32	-26.52600098	-15.31399918	15.31399918	-17.38901901	-3.132317305	-27.10147667	1.0
33	-26.52600098	-15.31399918	15.31399918	-21.46394539	5.922534466	-30.89866066	1.0
[RightHandThumb4]
30	-19.54599953	-11.28499985	11.28499985	0	0	0	1.0
31	-19.54599953	-11.28499985	11.28499985	0	0	0	1.0
32	-19.54599953	-11.28499985	11.28499985	0	0	0	1.0
33	-19.54599953	-11.28499985	11.28499985	0	0	0	1.0
[LeftUpLeg]
30	82.07800293	-67.51699829	-15.99599934	-44.67124176	19.32160759	3.829318047	1.0
31	82.07800293	-67.51699829	-15.99599934	-28.2343483	12.93064308	4.577611923	1.0
32	82.07800293	-67.51699829	-15.99599934	-25.78930855	11.43413067	4.911200523	1.0
33	82.07800293	-67.51699829	-15.99599934	-37.39247131	11.73421574	7.391402721	1.0
[LeftLeg]
30	0	-443.7049866	2.845999956	44.01969528	-1.077228069	-3.858174086	1.0
31	0	-443.7049866	2.845999956	24.7460022	-3.251581192	1.856253266	1.0
32	0	-443.7049866	2.845999956	29.58711243	-5.671829224	2.82070446	1.0
33	0	-443.7049866	2.845999956	51.64305878	-9.054268837	-3.400997877	1.0
[LeftFoot]
30	0	-444.2789917	-29.8219986	16.28198242	0.6510490775	-9.411500931	1.0
31	0	-444.2789917	-29.8219986	19.63958359	1.527691841	-12.39903164	1.0
32	0	-444.2789917	-29.8219986	4.646425724	0.0721635446	-5.273439884	1.0
33	0	-444.2789917	-29.8219986	-16.36273193	-0.4025226235	-1.064507484	1.0
[LeftToeBase]
30	0	-87.28699493	107.1060028	-4.92131567	7.014102721e-06	3.934602262e-07	1.0
31	0	-87.28699493	107.1060028	-5.867967606	-4.112982026e-07	-4.978247034e-06	1.0
32	0	-87.28699493	107.1060028	-11.45931244	0.3147708178	2.184574127	1.0
33	0	-87.28699493	107.1060028	-5.720677853	3.193482144e-06	-1.83935424e-06	1.0
[RightUpLeg]
30	-82.07800293	-67.51699829	-15.99599934	-90.5169754	-9.401382446	0.8174376488	1.0
31	-82.07800293	-67.51699829	-15.99599934	-66.94667053	-11.62985706	-0.2931209207	1.0
32	-82.07800293	-67.51699829	-15.99599934	-45.82579041	-13.84621906	0.665994823	1.0
33	-82.07800293	-67.51699829	-15.99599934	-33.27758026	-13.63006973	4.342713356	1.0
[RightLeg]
30	0	-443.7049866	2.861999989	117.277916	1.486026645	-6.468371391	1.0
31	0	-443.7049866	2.861999989	101.521492	-0.2729556859	-9.730869293	1.0
32	0	-443.7049866	2.861999989	81.43595886	-3.455378294	-10.00443268	1.0
33	0	-443.7049866	2.861999989	64.3922348	-6.457186222	-8.134104729	1.0
[RightFoot]
30	0	-444.2770081	-29.83799934	3.846992731	-1.254281044	7.862699986	1.0
31	0	-444.2770081	-29.83799934	6.650540829	-1.231772661	10.26752663	1.0
32	0	-444.2770081	-29.83799934	4.429059029	-3.648595572	12.91293526	1.0
33	0	-444.2770081	-29.83799934	-4.651186466	-8.77814579	14.65845585	1.0
[RightToeBase]
30	0	-87.28699493	107.1060028	-9.01728344	7.951098269e-06	1.731257271e-06	1.0
31	0	-87.28699493	107.1060028	-7.920653343	2.358669235e-06	-2.152764182e-06	1.0
32	0	-87.28699493	107.1060028	-11.13049316	-1.655065034e-06	4.118336165e-06	1.0
33	0	-87.28699493	107.1060028	-15.11712933	1.765087916e-07	-3.107238854e-06	1.0
[EndOfFile]
